<svg height="100%" width="100%" viewBox="0 1000 850 500" xmlns="http://www.w3.org/2000/svg">
  <path d="M250 1000C111.929 1000 0 1111.93 0 1250C-8.13802e-05 1388.07 111.929 1500 250 1500C388.071 1500 500 1388.07 500 1250C500 1111.93 388.071 1000 250 1000ZM250 1150C305.228 1150 350 1194.77 350 1250C350 1305.23 305.229 1350 250 1350C194.772 1350 150 1305.23 150 1250C150 1194.77 194.772 1150 250 1150Z" fill="#000000"/>
  <path d="M600 1000L850 1250L600 1500L500 1400L650 1250L500 1100L600 1000Z" fill="#000000"/>
</svg>