<?xml version="1.0" encoding="utf-8"?>
<svg xmlns="http://www.w3.org/2000/svg" xml:space="preserve" width="647" height="400">
  <path fill="#FFB700" d="M0 0h647v400H0z"/>
  <path fill="#91008C" d="M164 217.5C164 134.381 235.41 67 323.499 67S483 134.381 483 217.5c0 17.237-3.08 33.793-8.733 49.216 56.384 6.346 125.523 22.21 172.733 40.98V0H0v307.696c47.21-18.771 116.349-34.635 172.733-40.98C167.08 251.293 164 234.737 164 217.5z"/>
  <path d="M355.053 163.375h-63.105l-4.554 10.816 69.726-5.578zm-79.124 16.123-5.716 13.575 101.617-9.536-4.986-11.312zm-19 19.215-6.547 13.449 134.927-13.077-5.333-11.919zm-20.827 19.229-7.462 17.45 174.589-17.459-7.526-15.459zm-22.955 23.396-7.756 16.844 217.695-20.933-6.214-16.283zm-25.033 22.9-8.965 19.467 264.045-22.444-8.524-20.73zM647 400v-75.19c-50.633-18.434-129.049-33.617-177.764-37.472l-8.537-23.174-284.44 24.178c-5.277-.034-9.98.047-12.916.369C114.602 294.064 45.89 308.104 0 324.813V400h647z"/>
</svg>