<svg
  xmlns="http://www.w3.org/2000/svg"
  width="1533.2061"
  height="976.86072"
  version="1.0">
  <g id="layer1">
    <g id="g1956">
      <rect
        x="0"
        y="0"
        width="1533.2061"
        height="976.86072"
        style="fill:#dd0000;" />
      <path
        d="m 1123.855,558.20612 a 251.19275,254.91412 0 1 1 -502.38552,0 251.19275,254.91412 0 1 1 502.38552,0 z"
        transform="matrix(1.207407,0,0,1.171533,-277.7523,-130.1734)"
        style="fill:#ffffff;" />
      <g transform="matrix(1.637503,0,0,1.813484,491.952,59.94811)">
        <g transform="translate(-15.15542,-17.54026)">
          <g>
            <path
              d="m 188.99078,375.57092 c 21.98812,-33.28511 42.04006,-52.32832 64.02818,-85.61344 -5.02254,-20.74152 -25.81541,-9.11049 -63.24457,-268.052116 -42.30734,260.900196 -64.99978,249.583906 -67.19248,266.132466 21.49014,33.92568 44.91872,53.60845 66.40887,87.53309 z"
              style="fill:#000000;" />
            <path
              d="m 111.11807,308.50231 c 16.74081,23.26538 47.92685,55.49665 64.66763,78.76202 C 75.019018,393.34342 54.282043,415.30659 19.856289,447.76699 13.705668,340.18531 93.013415,340.72001 111.11807,308.50231 z"
              style="fill:#000000;" />
            <path
              d="m 202.79551,386.70297 c 19.41951,-25.24811 43.79091,-55.641 63.2104,-80.88912 32.85044,60.94726 75.58711,79.63235 115.52691,82.66587 -31.1994,39.76059 -111.38131,35.25793 -178.73731,-1.77675 z"
              style="fill:#000000;" />
          </g>
        </g>
      </g>
    </g>
  </g>
</svg>